<?xml version="1.0" encoding="UTF-8"?>
<svg version="1.1" viewBox="0 0 24 24" xmlns="http://www.w3.org/2000/svg">
    <g fill="none" fill-rule="evenodd">
        <path d="m13.629 10.737c0.82626-0.8188 1.9106-1.8858 3.2567-3.2009 3.2889-3.3694 4.9324-5.4092 4.9324-6.121 0-1.6684-1.0234-1.8622-3.0738-0.57969-1.7887 1.1141-4.0381 3.1231-6.7444 6.0288-0.25989 0.27897-0.51976 0.56522-0.77965 0.85868-2.0038-2.4111-3.6778-4.0977-5.0238-5.0558-1.7439-1.2518-2.6168-1.0434-2.6168 0.62681 0 0.27897 1.1095 1.7862 3.3265 4.5216 0.76533 0.95829 1.4392 1.8007 2.0199 2.5271-1.346 1.6087-2.5702 3.2082-3.6707 4.8007-2.0504 2.9528-3.0738 5.0233-3.0738 6.2133 0 0.030793 0.075276 0.42571 0.22942 1.1829 0.25989 0.74274 0.64163 1.1123 1.1471 1.1123 1.0234-1.4366 2.1167-2.9745 3.2799-4.614 2.0038-2.8133 3.4574-4.7534 4.3589-5.8205 0.18282 0.24818 0.32082 0.43295 0.41223 0.55794 0 0.014492 1.1937 2.0017 3.5793 5.9583 1.7135 2.8441 2.8301 4.2661 3.3498 4.2661 0.59685 0 1.0628-0.19202 1.3998-0.57969 0.25989-0.30796 0.38893-0.64851 0.38893-1.0199 0-0.98909-0.87105-2.8984-2.615-5.7264-1.2224-1.98-2.5845-3.9582-4.0829-5.9365l-2.753e-4 -9.28e-5z" fill="currentcolor"/>
    </g>
</svg>
